# xmcd
# 
# Track frame offsets:
#     150
#     36617
#     79615
#     150234
#     236683
#     257628
#     287838
# 
# Disc length: 4306
# 
# Revision: 0
# Processed by: cddbd v1.5.2PL0 Copyright (c) Steve Scherf et al.
# Submitted via: BonkEnc v1.0.8
# 
DISCID=5510d007
DTITLE=Jay Dobyns - Falscher Engel
DYEAR=0
DGENRE=
TTITLE0=Vogelrufe
TTITLE1=Meine >>saugende<< Brustwunde
TTITLE2=Was du hier siehts, ist die Liebe meines Lebens - ...
TTITLE3=Randale bei Harrah's
TTITLE4=Black Biscuit BBQ
TTITLE5=Rudy will wissen, wo ich gesessen habe
TTITLE6=Zu pleite für Sturgis
EXTD=Hörbuch
EXTT0=
EXTT1=
EXTT2=
EXTT3=
EXTT4=
EXTT5=
EXTT6=
PLAYORDER=
